<?xml version="1.0" encoding="UTF-8" standalone="no"?>
<!DOCTYPE svg PUBLIC "-//W3C//DTD SVG 1.1//EN" "http://www.w3.org/Graphics/SVG/1.1/DTD/svg11.dtd">
<svg width="100%" height="100%" viewBox="0 0 358 324" version="1.1" xmlns="http://www.w3.org/2000/svg" xmlns:xlink="http://www.w3.org/1999/xlink" xml:space="preserve" xmlns:serif="http://www.serif.com/" style="fill-rule:evenodd;clip-rule:evenodd;stroke-linecap:round;stroke-linejoin:round;stroke-miterlimit:1.5;">
    <g transform="matrix(1,0,0,1,-483.182,-219.032)">
        <circle cx="662.109" cy="380.807" r="157.524" style="fill:white;stroke:black;stroke-width:8.5px;"/>
    </g>
    <g id="_-Ellipse-" serif:id="(Ellipse)" transform="matrix(0.605879,0,0,0.605879,-222.231,-68.9483)">
        <circle cx="662.109" cy="380.807" r="157.524" style="fill:white;fill-opacity:0;stroke:black;stroke-width:14.03px;"/>
    </g>
    <g transform="matrix(1,0,0,1,-441.708,-177.559)">
        <g id="SHIRTS-BY-SHANE" serif:id="SHIRTS BY SHANE">
            <g transform="matrix(0.377759,-0.925904,0.925904,0.377759,35.0818,662.938)">
                <text x="510.772px" y="305.368px" style="font-family:'AmericanTypewriter', 'American Typewriter', serif;font-size:32px;">S</text>
            </g>
            <g transform="matrix(0.548067,-0.836434,0.836434,0.548067,-6.11877,562.965)">
                <text x="517.906px" y="287.145px" style="font-family:'AmericanTypewriter', 'American Typewriter', serif;font-size:32px;">H</text>
            </g>
            <g transform="matrix(0.674275,-0.73848,0.73848,0.674275,-23.665,479.672)">
                <text x="531.922px" y="266.663px" style="font-family:'AmericanTypewriter', 'American Typewriter', serif;font-size:32px;">I</text>
            </g>
            <g transform="matrix(0.780162,-0.625578,0.625578,0.780162,-42.3839,394.234)">
                <text x="539.729px" y="257.421px" style="font-family:'AmericanTypewriter', 'American Typewriter', serif;font-size:32px;">R</text>
            </g>
            <g transform="matrix(0.881843,-0.471542,0.471542,0.881843,-48.7127,291.727)">
                <text x="557.76px" y="243.065px" style="font-family:'AmericanTypewriter', 'American Typewriter', serif;font-size:32px;">T</text>
            </g>
            <g transform="matrix(0.950447,-0.310887,0.310887,0.950447,-44.0846,190.51)">
                <text x="575.568px" y="233.544px" style="font-family:'AmericanTypewriter', 'American Typewriter', serif;font-size:32px;">S</text>
            </g>
            <g transform="matrix(0.997515,-0.0704477,0.0704477,0.997515,-14.4137,42.9656)">
                <text x="601.93px" y="225.829px" style="font-family:'AmericanTypewriter', 'American Typewriter', serif;font-size:32px;">B</text>
            </g>
            <g transform="matrix(0.991797,0.12782,-0.12782,0.991797,33.7806,-77.8978)">
                <text x="623.827px" y="224.251px" style="font-family:'AmericanTypewriter', 'American Typewriter', serif;font-size:32px;">Y</text>
            </g>
            <g transform="matrix(0.926771,0.375627,-0.375627,0.926771,134.083,-228.993)">
                <text x="654.349px" y="229.392px" style="font-family:'AmericanTypewriter', 'American Typewriter', serif;font-size:32px;">S</text>
            </g>
            <g transform="matrix(0.837667,0.546181,-0.546181,0.837667,238.348,-328.967)">
                <text x="672.592px" y="236.486px" style="font-family:'AmericanTypewriter', 'American Typewriter', serif;font-size:32px;">H</text>
            </g>
            <g transform="matrix(0.705526,0.708684,-0.708684,0.705526,381.41,-417.736)">
                <text x="693.368px" y="250.084px" style="font-family:'AmericanTypewriter', 'American Typewriter', serif;font-size:32px;">A</text>
            </g>
            <g transform="matrix(0.54366,0.839305,-0.839305,0.54366,547.998,-474.249)">
                <text x="710.121px" y="266.818px" style="font-family:'AmericanTypewriter', 'American Typewriter', serif;font-size:32px;">N</text>
            </g>
            <g transform="matrix(0.374204,0.927346,-0.927346,0.374204,718.858,-490.862)">
                <text x="723.125px" y="287.195px" style="font-family:'AmericanTypewriter', 'American Typewriter', serif;font-size:32px;">E</text>
            </g>
        </g>
    </g>
    <g transform="matrix(1,0,0,1,-441.708,-177.559)">
        <g id="SHIRTSBYSHANE.COM">
            <g transform="matrix(0.27867,0.960387,-0.960387,0.27867,705.706,-201.505)">
                <text x="486.996px" y="369.04px" style="font-family:'AmericanTypewriter', 'American Typewriter', serif;font-size:28px;">S</text>
            </g>
            <g transform="matrix(0.437045,0.89944,-0.89944,0.437045,627.444,-224.319)">
                <text x="492.921px" y="389.078px" style="font-family:'AmericanTypewriter', 'American Typewriter', serif;font-size:28px;">H</text>
            </g>
            <g transform="matrix(0.558699,0.829371,-0.829371,0.558699,563.497,-236.821)">
                <text x="504.286px" y="411.1px" style="font-family:'AmericanTypewriter', 'American Typewriter', serif;font-size:28px;">I</text>
            </g>
            <g transform="matrix(0.665982,0.745968,-0.745968,0.665982,486.061,-240.641)">
                <text x="511.744px" y="422.444px" style="font-family:'AmericanTypewriter', 'American Typewriter', serif;font-size:28px;">R</text>
            </g>
            <g transform="matrix(0.776883,0.629645,-0.629645,0.776883,394.725,-234.166)">
                <text x="527.776px" y="439.881px" style="font-family:'AmericanTypewriter', 'American Typewriter', serif;font-size:28px;">T</text>
            </g>
            <g transform="matrix(0.863006,0.505193,-0.505193,0.863006,303.351,-212.895)">
                <text x="544.223px" y="452.888px" style="font-family:'AmericanTypewriter', 'American Typewriter', serif;font-size:28px;">S</text>
            </g>
            <g transform="matrix(0.930473,0.36636,-0.36636,0.930473,208.738,-173.717)">
                <text x="562.056px" y="463.097px" style="font-family:'AmericanTypewriter', 'American Typewriter', serif;font-size:28px;">B</text>
            </g>
            <g transform="matrix(0.980357,0.19723,-0.19723,0.980357,104.406,-105.847)">
                <text x="583.599px" y="471.239px" style="font-family:'AmericanTypewriter', 'American Typewriter', serif;font-size:28px;">Y</text>
            </g>
            <g transform="matrix(0.999364,0.0356599,-0.0356599,0.999364,17.3436,-21.3425)">
                <text x="606.982px" y="475.535px" style="font-family:'AmericanTypewriter', 'American Typewriter', serif;font-size:28px;">S</text>
            </g>
            <g transform="matrix(0.991441,-0.130556,0.130556,0.991441,-56.7965,86.03)">
                <text x="627.735px" y="476.19px" style="font-family:'AmericanTypewriter', 'American Typewriter', serif;font-size:28px;">H</text>
            </g>
            <g transform="matrix(0.950206,-0.311622,0.311622,0.950206,-114.686,227.095)">
                <text x="653.264px" y="472.415px" style="font-family:'AmericanTypewriter', 'American Typewriter', serif;font-size:28px;">A</text>
            </g>
            <g transform="matrix(0.877158,-0.480202,0.480202,0.877158,-139.895,381.968)">
                <text x="676.629px" y="464.416px" style="font-family:'AmericanTypewriter', 'American Typewriter', serif;font-size:28px;">N</text>
            </g>
            <g transform="matrix(0.785273,-0.61915,0.61915,0.785273,-130.001,529.371)">
                <text x="698.2px" y="452.109px" style="font-family:'AmericanTypewriter', 'American Typewriter', serif;font-size:28px;">E</text>
            </g>
            <g transform="matrix(0.70658,-0.707633,0.707633,0.70658,-100.643,634.343)">
                <text x="714.592px" y="438.531px" style="font-family:'AmericanTypewriter', 'American Typewriter', serif;font-size:28px;">.</text>
            </g>
            <g transform="matrix(0.625287,-0.780395,0.780395,0.625287,-66.4062,724.95)">
                <text x="721.705px" y="431.626px" style="font-family:'AmericanTypewriter', 'American Typewriter', serif;font-size:28px;">C</text>
            </g>
            <g transform="matrix(0.497026,-0.867736,0.867736,0.497026,9.36517,846.277)">
                <text x="734.685px" y="415.06px" style="font-family:'AmericanTypewriter', 'American Typewriter', serif;font-size:28px;">O</text>
            </g>
            <g transform="matrix(0.320058,-0.947398,0.947398,0.320058,132.345,975.585)">
                <text x="745.839px" y="395.591px" style="font-family:'AmericanTypewriter', 'American Typewriter', serif;font-size:28px;">M</text>
            </g>
        </g>
    </g>
    <g transform="matrix(0.998628,0,0,1.26379,-457.959,-351.541)">
        <g transform="matrix(1,0,0,1,-1.02545,-2.1744)">
            <rect x="463.87" y="389.963" width="99.764" height="26.583" style="fill:white;stroke:black;stroke-width:7.46px;"/>
        </g>
        <g transform="matrix(1,0,0,1,-2.14648,-0.945312)">
            <path d="M563.929,416.559L552.711,431.077L546.423,416.413L563.929,416.559Z" style="stroke:black;stroke-width:7.46px;"/>
        </g>
    </g>
    <g transform="matrix(-0.998628,0,0,1.26379,815.745,-351.541)">
        <g transform="matrix(1,0,0,1,-1.02545,-2.1744)">
            <rect x="463.87" y="389.963" width="99.764" height="26.583" style="fill:white;stroke:black;stroke-width:7.46px;"/>
        </g>
        <g transform="matrix(1,0,0,1,-2.14648,-0.945312)">
            <path d="M563.929,416.559L552.711,431.077L546.423,416.413L563.929,416.559Z" style="stroke:black;stroke-width:7.46px;"/>
        </g>
    </g>
    <g transform="matrix(1,0,0,1,-787.702,-154.165)">
        <text x="816.998px" y="317.829px" style="font-family:'AmericanTypewriter', 'American Typewriter', serif;font-size:24px;">EST</text>
    </g>
    <g transform="matrix(1,0,0,1,-575.409,-92.2022)">
        <text x="849.943px" y="255.056px" style="font-family:'AmericanTypewriter', 'American Typewriter', serif;font-size:24px;">2018</text>
    </g>
</svg>
